<svg width="19" height="19" viewBox="0 0 19 19" fill="none" xmlns="http://www.w3.org/2000/svg">
<path d="M16.0195 6C16.0195 6.55229 16.4672 7 17.0195 7C17.5718 7 18.0195 6.55229 18.0195 6V0H12.0195C11.4672 0 11.0195 0.447715 11.0195 1C11.0195 1.55228 11.4672 2 12.0195 2L14.5858 2L10.2929 6.29289C9.90237 6.68342 9.90237 7.31658 10.2929 7.70711C10.6834 8.09763 11.3166 8.09763 11.7071 7.70711L16.0195 3.39468V6Z" fill="#BF0C34"/>
<path d="M2 12.021C2 11.4687 1.55228 11.021 1 11.021C0.447715 11.021 0 11.4687 0 12.021V18.021H6C6.55228 18.021 7 17.5733 7 17.021C7 16.4687 6.55228 16.021 6 16.021H3.39322L7.70711 11.7071C8.09763 11.3166 8.09763 10.6834 7.70711 10.2929C7.31658 9.90237 6.68342 9.90237 6.29289 10.2929L2 14.5858V12.021Z" fill="#BF0C34"/>
</svg>
