<svg width="21" height="19" viewBox="0 0 21 19" fill="none" xmlns="http://www.w3.org/2000/svg">
<path fill-rule="evenodd" clip-rule="evenodd" d="M3.55297e-06 9.95102C-0.00153147 9.39874 0.444938 8.94978 0.99722 8.94825L16.6744 8.90467L10.3504 2.65978C9.95745 2.27172 9.95347 1.63857 10.3415 1.2456C10.7296 0.852623 11.3627 0.848642 11.7557 1.2367L19.806 9.18639C19.9955 9.37351 20.1025 9.62848 20.1034 9.89478C20.1042 10.1611 19.9988 10.4167 19.8105 10.605L11.7602 18.6553C11.3697 19.0459 10.7365 19.0459 10.346 18.6553C9.95544 18.2648 9.95544 17.6317 10.346 17.2411L16.6824 10.9047L1.00278 10.9482C0.450496 10.9498 0.00153852 10.5033 3.55297e-06 9.95102Z" fill="#4C4F54"/>
</svg>
