<svg width="21" height="18" viewBox="0 0 21 18" fill="none" xmlns="http://www.w3.org/2000/svg">
<path fill-rule="evenodd" clip-rule="evenodd" d="M20.1034 8.99722C20.1049 9.5495 19.6584 9.99846 19.1062 10L3.42902 10.0436L9.75296 16.2885C10.1459 16.6765 10.1499 17.3097 9.76185 17.7026C9.37379 18.0956 8.74064 18.0996 8.34767 17.7115L0.297353 9.76185C0.107866 9.57473 0.000842276 9.31976 4.95026e-06 9.05346C-0.000832376 8.78715 0.104585 8.53151 0.292892 8.34321L8.34321 0.292893C8.73373 -0.0976311 9.3669 -0.0976311 9.75742 0.292893C10.1479 0.683417 10.1479 1.31658 9.75742 1.70711L3.42095 8.04358L19.1006 8C19.6529 7.99847 20.1018 8.44494 20.1034 8.99722Z" fill="#4C4F54"/>
</svg>
