<svg width="30" height="30" viewBox="0 0 30 30" fill="none" xmlns="http://www.w3.org/2000/svg">
<path d="M3.80957 13.332V20.2368" stroke="black" stroke-width="2"/>
<path d="M21.1904 13.5703V20.237" stroke="black" stroke-width="2"/>
<path d="M3.80957 13.3333C3.80957 10.4762 5.90481 5 12.381 5" stroke="black" stroke-width="2"/>
<path d="M21.1904 13.5714C21.1904 10.7143 18.8571 5 12.3809 5" stroke="black" stroke-width="2"/>
<path d="M3.80952 20.2383V20.2383C3.80952 21.6737 3.17632 23.0359 2.07902 23.9613L1.45772 24.4852C0.961139 24.904 1.25727 25.7145 1.90685 25.7145H12.1429" stroke="black" stroke-width="2"/>
<path d="M21.1905 20.2383V20.2383C21.1905 21.366 21.646 22.4458 22.4536 23.2329L23.5513 24.3026C24.0798 24.8177 23.7151 25.7145 22.9771 25.7145H12.1429" stroke="black" stroke-width="2"/>
<mask id="path-7-inside-1" fill="white">
<path d="M8.09508 25.476C8.09508 26.6126 8.54661 27.7027 9.35033 28.5065C10.1541 29.3102 11.2441 29.7617 12.3808 29.7617C13.5174 29.7617 14.6075 29.3102 15.4112 28.5065C16.215 27.7027 16.6665 26.6126 16.6665 25.476L14.4951 25.476C14.4951 26.0368 14.2724 26.5746 13.8759 26.9711C13.4793 27.3676 12.9415 27.5903 12.3808 27.5903C11.82 27.5903 11.2822 27.3676 10.8857 26.9711C10.4892 26.5746 10.2664 26.0368 10.2664 25.476L8.09508 25.476Z"/>
</mask>
<path d="M8.09508 25.476C8.09508 26.6126 8.54661 27.7027 9.35033 28.5065C10.1541 29.3102 11.2441 29.7617 12.3808 29.7617C13.5174 29.7617 14.6075 29.3102 15.4112 28.5065C16.215 27.7027 16.6665 26.6126 16.6665 25.476L14.4951 25.476C14.4951 26.0368 14.2724 26.5746 13.8759 26.9711C13.4793 27.3676 12.9415 27.5903 12.3808 27.5903C11.82 27.5903 11.2822 27.3676 10.8857 26.9711C10.4892 26.5746 10.2664 26.0368 10.2664 25.476L8.09508 25.476Z" stroke="black" stroke-width="4" mask="url(#path-7-inside-1)"/>
</svg>
