<svg width="21" height="18" viewBox="0 0 21 18" fill="none" xmlns="http://www.w3.org/2000/svg">
<path fill-rule="evenodd" clip-rule="evenodd" d="M3.94625e-06 8.99722C-0.00153105 9.5495 0.444938 9.99846 0.997221 10L16.6744 10.0436L10.3504 16.2885C9.95745 16.6765 9.95347 17.3097 10.3415 17.7026C10.7296 18.0956 11.3627 18.0996 11.7557 17.7115L19.806 9.76185C19.9955 9.57473 20.1025 9.31976 20.1034 9.05346C20.1042 8.78715 19.9988 8.53151 19.8105 8.34321L11.7602 0.292893C11.3697 -0.0976311 10.7365 -0.0976311 10.346 0.292893C9.95544 0.683417 9.95544 1.31658 10.346 1.70711L16.6824 8.04358L1.00278 8C0.450497 7.99847 0.00153889 8.44494 3.94625e-06 8.99722Z" fill="white"/>
</svg>
